#N canvas 442 356 413 185 12;
#X obj 61 110 outlet;
#X obj 143 54 inlet;
#X obj 226 54 inlet;
#X obj 61 54 inlet;
#X obj 61 82 expr $f2 + $f1*($f3-$f2);
#X connect 1 0 4 1;
#X connect 2 0 4 2;
#X connect 3 0 4 0;
#X connect 4 0 0 0;
