#N canvas 1048 616 303 385 12;
#X obj 54 142 % 4;
#X obj 54 166 t f f;
#X obj 107 238 - 1;
#X obj 54 214 * 2;
#X obj 54 238 - 1;
#X obj 54 264 pack f f;
#X obj 54 190 & 1;
#X obj 107 190 & 2;
#X obj 54 46 inlet;
#X obj 54 318 outlet;
#X obj 54 102 array get \$1 0 1;
#X connect 0 0 1 0;
#X connect 1 0 6 0;
#X connect 1 1 7 0;
#X connect 2 0 5 1;
#X connect 3 0 4 0;
#X connect 4 0 5 0;
#X connect 5 0 9 0;
#X connect 6 0 3 0;
#X connect 7 0 2 0;
#X connect 8 0 10 0;
#X connect 10 0 0 0;
