#N canvas 224 50 1487 952 12;
#X text 418 628 top-left;
#X text 1027 628 top-right;
#X text 115 628 bottom-left;
#X text 731 628 bottom-right;
#X obj 412 571 pack;
#X obj 1022 572 pack;
#X obj 109 571 pack;
#X obj 722 571 pack;
#X obj 109 523 expr _\$0_xf \; _\$0_yf;
#X obj 50 353 t b b;
#X obj 50 504 t b b;
#X obj 549 427 expr $f1 + _\$0_Y + 1;
#X obj 1159 372 expr _\$0_X + 1;
#X obj 1159 427 expr $f1 + _\$0_Y + 1;
#X obj 549 372 expr _\$0_X;
#X obj 859 372 expr _\$0_X + 1;
#X obj 246 372 expr _\$0_X;
#X obj 246 427 expr $f1 + _\$0_Y;
#X obj 859 427 expr $f1 + _\$0_Y;
#X obj 412 523 expr _\$0_xf \; _\$0_yf-1;
#X obj 1022 523 expr _\$0_xf-1 \; _\$0_yf-1;
#X obj 722 523 expr _\$0_xf-1 \; _\$0_yf;
#X obj 109 667 expr _\$0_yf;
#X obj 50 648 t b b;
#X obj 109 715 t f f;
#X obj 50 746 t b;
#X obj 109 765 expr _\$0_xf;
#X obj 105 220 i;
#X obj 73 253 -;
#X obj 105 253 % 255;
#X obj 1160 182 t f f;
#X obj 1192 210 i;
#X obj 1160 243 -;
#X obj 1192 243 % 255;
#X obj 50 192 t b f f;
#X obj 73 317 v _\$0_xf;
#X obj 1160 307 v _\$0_yf;
#X obj 150 317 v _\$0_X;
#X obj 1237 307 v _\$0_Y;
#X obj 50 39 inlet;
#X obj 246 396 array get \$2 0 1;
#X obj 246 451 array get \$2 0 1;
#X obj 549 451 array get \$2 0 1;
#X obj 549 396 array get \$2 0 1;
#X obj 859 396 array get \$2 0 1;
#X obj 859 451 array get \$2 0 1;
#X obj 1159 451 array get \$2 0 1;
#X obj 1159 396 array get \$2 0 1;
#X obj 1160 39 inlet;
#X obj 50 87 expr $f1 * pow(2 \, \$1);
#X obj 1160 87 expr $f1 * pow(2 \, \$1);
#X obj 270 886 outlet;
#X text 97 38 x;
#X text 1207 38 y;
#X obj 128 116 expr pow($f1 \, \$1);
#X obj 128 171 s \$0-amplitude;
#X obj 477 823 r \$0-amplitude;
#X obj 355 260 v \$3;
#X obj 323 293 +;
#X obj 323 317 v \$3;
#X obj 323 232 t f b;
#X text 392 259 update amplitude sum for all clones;
#X obj 128 140 t f f;
#X obj 50 63 route float persistance;
#X obj 270 848 expr $f1 * $f2 / if(\$4 \, \$3 \, 1);
#X text 393 38 args: count \, permutation table name \, amplitude sum
name \, normalize bool value, f 78;
#X text 393 78 based on Raouf Touti's explanations and code on https://rtouti.github.io/graphics/perlin-noise-algorithm
;
#X obj 246 482 perlin.2d-getvector \$2;
#X obj 549 482 perlin.2d-getvector \$2;
#X obj 859 482 perlin.2d-getvector \$2;
#X obj 1159 482 perlin.2d-getvector \$2;
#X obj 722 604 perlin.2d-dotproduct;
#X obj 109 604 perlin.2d-dotproduct;
#X obj 412 604 perlin.2d-dotproduct;
#X obj 1022 604 perlin.2d-dotproduct;
#X obj 317 734 perlin.2d-lerp;
#X obj 675 734 perlin.2d-lerp;
#X obj 270 808 perlin.2d-lerp;
#X obj 109 691 perlin.2d-ease;
#X obj 109 789 perlin.2d-ease;
#X connect 4 0 73 0;
#X connect 5 0 74 0;
#X connect 6 0 72 0;
#X connect 7 0 71 0;
#X connect 8 0 6 0;
#X connect 8 1 6 1;
#X connect 9 0 10 0;
#X connect 9 1 14 0;
#X connect 9 1 16 0;
#X connect 9 1 15 0;
#X connect 9 1 12 0;
#X connect 10 0 23 0;
#X connect 10 1 8 0;
#X connect 10 1 19 0;
#X connect 10 1 20 0;
#X connect 10 1 21 0;
#X connect 11 0 42 0;
#X connect 12 0 47 0;
#X connect 13 0 46 0;
#X connect 14 0 43 0;
#X connect 15 0 44 0;
#X connect 16 0 40 0;
#X connect 17 0 41 0;
#X connect 18 0 45 0;
#X connect 19 0 4 0;
#X connect 19 1 4 1;
#X connect 20 0 5 0;
#X connect 20 1 5 1;
#X connect 21 0 7 0;
#X connect 21 1 7 1;
#X connect 22 0 78 0;
#X connect 23 0 25 0;
#X connect 23 1 22 0;
#X connect 24 0 75 0;
#X connect 24 1 76 0;
#X connect 25 0 26 0;
#X connect 26 0 79 0;
#X connect 27 0 28 1;
#X connect 27 0 29 0;
#X connect 28 0 35 0;
#X connect 29 0 37 0;
#X connect 30 0 32 0;
#X connect 30 1 31 0;
#X connect 31 0 32 1;
#X connect 31 0 33 0;
#X connect 32 0 36 0;
#X connect 33 0 38 0;
#X connect 34 0 9 0;
#X connect 34 1 28 0;
#X connect 34 2 27 0;
#X connect 39 0 63 0;
#X connect 40 0 17 0;
#X connect 41 0 67 0;
#X connect 42 0 68 0;
#X connect 43 0 11 0;
#X connect 44 0 18 0;
#X connect 45 0 69 0;
#X connect 46 0 70 0;
#X connect 47 0 13 0;
#X connect 48 0 50 0;
#X connect 49 0 34 0;
#X connect 50 0 30 0;
#X connect 54 0 62 0;
#X connect 56 0 64 1;
#X connect 57 0 58 1;
#X connect 58 0 59 0;
#X connect 60 0 58 0;
#X connect 60 1 57 0;
#X connect 62 0 55 0;
#X connect 62 1 60 0;
#X connect 63 0 49 0;
#X connect 63 1 54 0;
#X connect 64 0 51 0;
#X connect 67 0 72 1;
#X connect 68 0 73 1;
#X connect 69 0 71 1;
#X connect 70 0 74 1;
#X connect 71 0 76 1;
#X connect 72 0 75 1;
#X connect 73 0 75 2;
#X connect 74 0 76 2;
#X connect 75 0 77 1;
#X connect 76 0 77 2;
#X connect 77 0 64 0;
#X connect 78 0 24 0;
#X connect 79 0 77 0;
